<?xml version="1.0" encoding="utf-8"?>
<!-- Generator: Adobe Illustrator 21.0.2, SVG Export Plug-In . SVG Version: 6.00 Build 0)  -->
<svg version="1.1" id="Layer_1" xmlns="http://www.w3.org/2000/svg" xmlns:xlink="http://www.w3.org/1999/xlink" x="0px" y="0px"
	 viewBox="0 0 120 60" style="enable-background:new 0 0 120 60;" xml:space="preserve">
<style type="text/css">
	.st0{fill:#FF2159;}
	.st1{fill:#2E2D2C;}
</style>
<g>
	<path class="st0" d="M114.2,31c-0.2-1.9-0.8-3.8-2.3-4.9c-1.2-0.8-2.7-0.9-4.1-0.9c-5.8-0.1-11.5,0.6-17.3,1
		c-9.3,0.6-18.6,0.2-27.9-0.1c-10.8-0.4-21.5-0.8-32.3-1.2c0.1-3-0.7-6-2.4-8.5c-0.2-0.2-0.4-0.5-0.6-0.6c-0.4-0.1-0.8,0.1-1.2,0.4
		c-1.5,1.1-14.9,13.5-18.1,18.7c-0.2,0.3-0.4,0.7-0.5,1.1c-0.1,0.6,0.3,1.2,0.8,1.7c3.4,3.8,9.2,4,13.6,6.6c4,2.3,6.7,6.5,10.8,8.6
		c0.3,0.2,0.7,0.3,1,0.2c0.4-0.1,0.7-0.5,0.9-0.9c1.1-2.1,1.3-4.7,0.5-7c-0.4-1.2-1-2.4-0.7-3.5c0.5-1.8,2.9-1.3,4.7-1.1
		c22.8,2.1,63.4-1.9,67.3-2C116.2,38.4,114.4,32.8,114.2,31z"/>
</g>
<g>
	<path class="st1" d="M31.6,54.1c-0.2,0-0.3-0.1-0.5-0.2l-28.9-22c-0.2-0.1-0.3-0.3-0.3-0.6c0-0.2,0.1-0.4,0.2-0.6L29,6.1
		C29.2,6,29.5,5.9,29.7,6c0.3,0.1,0.5,0.3,0.5,0.6L32.3,21c4,0.3,27.4,2.2,39.5,2.1c27-0.3,45.3-2.1,45.5-2.1c0.2,0,0.4,0,0.6,0.2
		c0.2,0.1,0.2,0.3,0.2,0.6v12.9c0,0.4-0.3,0.7-0.6,0.7c-0.2,0-23.1,3.8-47.3,3.8c-18.2,0-34.2-0.4-37.8-0.5v14.8
		c0,0.3-0.2,0.5-0.4,0.7C31.8,54,31.7,54.1,31.6,54.1z M3.8,31.3l27,20.5v-14c0-0.2,0.1-0.4,0.2-0.5c0.1-0.1,0.3-0.2,0.5-0.2
		c0.2,0,17.9,0.5,38.5,0.5c21.8,0,42.6-3,46.4-3.6V22.5c-3.9,0.4-21,1.8-44.8,2.1c-13.3,0.1-40-2.1-40.2-2.1c-0.3,0-0.6-0.3-0.7-0.6
		L28.9,8.2L3.8,31.3z"/>
</g>
<g>
	<path class="st1" d="M27.1,43.9c-0.2,0-0.3,0-0.4-0.1l-13.2-9.5c-0.3-0.2-0.4-0.7-0.2-1c0.2-0.3,0.7-0.4,1-0.2l13.2,9.5
		c0.3,0.2,0.4,0.7,0.2,1C27.6,43.8,27.4,43.9,27.1,43.9z"/>
</g>
<g>
	<path class="st1" d="M100.5,33.7c-0.4,0-0.7-0.3-0.7-0.7c0-0.4,0.3-0.8,0.7-0.8l12.7-0.8v-6.8c0-0.4,0.3-0.8,0.8-0.8
		s0.8,0.3,0.8,0.8v7.5c0,0.4-0.3,0.7-0.7,0.7L100.5,33.7C100.6,33.7,100.6,33.7,100.5,33.7z"/>
</g>
</svg>
