<?xml version="1.0" encoding="utf-8"?>
<!-- Generator: Adobe Illustrator 21.0.2, SVG Export Plug-In . SVG Version: 6.00 Build 0)  -->
<svg version="1.1" id="Layer_1" xmlns="http://www.w3.org/2000/svg" xmlns:xlink="http://www.w3.org/1999/xlink" x="0px" y="0px"
	 viewBox="0 0 72 72" style="enable-background:new 0 0 72 72;" xml:space="preserve">
<style type="text/css">
	.st0{fill:#FF2159;}
	.st1{fill:#2E2D2C;}
</style>
<g>
	<path class="st0" d="M63,43.1c3.5-4.4,6-9.7,7.1-15.2c0.4-1.8,0.4-4.1-1.2-5c-1.7-1-3.7,0.4-5.2,1.6c-0.4,0.3-0.7,0.6-1.2,0.6
		c-1.2,0.2-2.1-1.1-2.7-2.1c-2.9-4.8-7.5-8.4-12.6-10.6S36.5,9.2,30.9,8.9c-3-0.1-6.1-0.1-8.9,0.9s-5.4,3.1-6.3,6
		c-0.2,0.8-0.3,1.6,0,2.3c0.8,1.7,3.2,1.6,5.1,1.2c5.7-1.2,11.5-2.9,17.3-2.4s11.9,3.7,13.8,9.2c0.6,1.7,0.6,3.8-0.7,5.1
		c-0.7,0.7-1.8,1-2.7,1.5s-1.8,1.4-1.7,2.4s1,1.6,1.9,2.1C53.2,39.9,63,43.1,63,43.1z"/>
</g>
<g>
	<path class="st1" d="M36,66c-0.9,0-1.8,0-2.7-0.1C17,64.6,9.8,51.1,8.5,46.8C7,47.6,2.4,50.2,1,51.3c-0.1,0.1-0.3,0.1-0.5,0
		c-0.1-0.1-0.2-0.3-0.2-0.4c2.2-8.1,5-16.2,8.1-24.1c0-0.1,0.1-0.2,0.3-0.2c0.1,0,0.3,0,0.3,0.1c4,3.3,7.8,5.5,12,8.1
		c2.4,1.4,4.8,2.9,7.6,4.7c0.1,0.1,0.2,0.2,0.2,0.4s-0.1,0.3-0.3,0.3l-8.7,3.3c1.3,6,7.1,11.1,14.1,12.3c8.2,1.4,17.2-2.5,20.7-4.3
		c0.1,0,0.2-0.1,0.3,0c0.1,0,0.2,0.1,0.2,0.2l3.1,6.2c0.1,0.2,0,0.3-0.1,0.5C52.6,63.7,43.4,66,36,66z M8.8,45.9c0.1,0,0.1,0,0.2,0
		C9.1,46,9.2,46,9.2,46.2c0.2,1,1.9,5.4,5.9,9.9c3.4,3.7,9.3,8.3,18.4,9.1c7.5,0.6,17.9-1.4,24.2-7.1l-3-5.8
		c-3.9,1.8-12.7,5.7-20.8,4.3c-7.5-1.3-13.6-6.7-14.8-13.2c0-0.2,0.1-0.4,0.2-0.4l8.3-3.1c-2.5-1.6-4.8-3-6.9-4.3
		C16.5,33,12.9,30.8,9,27.7C6.1,35,3.6,42.5,1.4,50.1c2.4-1.5,6.9-4.1,7.2-4.2C8.7,45.9,8.7,45.9,8.8,45.9z M63.2,45.4
		c-0.1,0-0.2,0-0.2-0.1c-4-3.3-7.8-5.5-12-8.1c-2.4-1.4-4.8-2.9-7.6-4.7c-0.1-0.1-0.2-0.2-0.2-0.4c0-0.1,0.1-0.3,0.3-0.3l8.7-3.3
		c-1.3-6-7.1-11.1-14.1-12.3c-8.2-1.4-17.2,2.5-20.7,4.3c-0.1,0-0.2,0.1-0.3,0c-0.1,0-0.2-0.1-0.2-0.2l-3.1-6.2
		c-0.1-0.2,0-0.3,0.1-0.5c6.5-6,17.2-8.1,25-7.5C56.4,8.9,62,21.3,63.3,25.5c1.5-0.8,6.5-3.8,7.9-4.9c0.1-0.1,0.3-0.1,0.5,0
		c0.1,0.1,0.2,0.3,0.2,0.4c-2.2,8.1-5,16.2-8.1,24.1C63.5,45.2,63.4,45.3,63.2,45.4C63.3,45.4,63.2,45.4,63.2,45.4z M44.3,32.2
		c2.5,1.6,4.8,3,6.9,4.3c4.2,2.5,8.1,4.9,12,8.1c2.9-7.3,5.8-15.5,7.9-23.1c-2.4,1.5-7.6,4.5-7.9,4.6c-0.1,0.1-0.2,0.1-0.3,0
		c-0.1,0-0.2-0.1-0.2-0.3c-0.2-1-1.9-5.4-5.9-9.9c-3.4-3.7-9.3-8.3-18.4-9.1c-7.3-0.5-17.7,1.5-24,7.2l2.8,5.6
		c3.8-1.9,12.7-5.6,20.9-4.2c7.5,1.3,13.6,6.7,14.8,13.2c0,0.2-0.1,0.4-0.2,0.4L44.3,32.2z"/>
</g>
<g>
	<path class="st1" d="M25.1,55.1c-0.1,0-0.1,0-0.2,0c-5.5-2.7-8.3-10.7-8.1-11.1c0.1-0.2,0.3-0.3,0.5-0.2c0.1,0.1,0.2,0.2,0.2,0.3
		c0.1,0.3,2.4,7.7,7.7,10.3c0.2,0.1,0.3,0.3,0.2,0.5C25.4,55,25.2,55.1,25.1,55.1z"/>
</g>
<g>
	<path class="st1" d="M41.3,63.6c-0.2,0-0.4-0.1-0.4-0.3s0.1-0.4,0.3-0.4c3.9-0.5,11.5-3.9,13.3-5c0.2-0.1,0.4-0.1,0.5,0.1
		c0.1,0.2,0.1,0.4-0.1,0.5C53.1,59.7,45.4,63.1,41.3,63.6C41.4,63.6,41.3,63.6,41.3,63.6z"/>
</g>
</svg>
