<?xml version="1.0" encoding="utf-8"?>
<!-- Generator: Adobe Illustrator 21.0.2, SVG Export Plug-In . SVG Version: 6.00 Build 0)  -->
<svg version="1.1" id="Layer_1" xmlns="http://www.w3.org/2000/svg" xmlns:xlink="http://www.w3.org/1999/xlink" x="0px" y="0px"
	 viewBox="0 0 72 72" style="enable-background:new 0 0 72 72;" xml:space="preserve">
<style type="text/css">
	.st0{fill:#FF2159;}
	.st1{fill:#2E2D2C;}
	.st2{fill:none;stroke:#2E2D2C;stroke-width:0.75;stroke-miterlimit:10;}
	.st3{fill:none;stroke:#2E2D2C;stroke-width:0.75;stroke-linecap:round;stroke-linejoin:round;stroke-miterlimit:10;}
</style>
<g>
	<g>
		<path class="st0" d="M49.1,53.5c0.9-0.6,4.6-0.4,4,0.4c-10,4.9-13.2,4.2-20.9,4.6c-2.7-0.3-9.9-1.4-15.1-5.8
			c-0.4-0.4,1.8-1.1,2.2-0.8c8.6,5.8,13.5,4.1,14.4,4.1C47.5,56.5,42.6,55.8,49.1,53.5z"/>
	</g>
</g>
<g>
	<path class="st1" d="M36,15.9c-24.8,0-33.9,20.6-34,20.8c0,0.1,0,0.2,0,0.3c0.1,0.2,9.2,22,34,22s33.9-21.8,34-22
		c0-0.1,0-0.2,0-0.3C69.9,36.5,60.7,15.9,36,15.9z M36,58.2c-23.2,0-32.4-19.5-33.2-21.4c0.5-1.2,4.6-9.4,13.6-15c0.1-0.1,2-0.9,2-1
		c5.2-2.8,11.1-4.2,17.5-4.2c6.3,0,12.1,1.4,17.3,4.1c0.2,0.1,1.9,1,2.1,1.1c9.1,5.6,13.2,13.8,13.8,15C68.4,38.7,59.2,58.2,36,58.2
		z"/>
</g>
<path class="st2" d="M69.6,36.8c-10.4,12-18.4,19-33.6,19c-16.4,0-27.2-9.4-33.5-19"/>
<path class="st3" d="M36,52.8c-14.3,0-24.4-7.1-30.9-15.4"/>
<path class="st3" d="M63.9,40c-3.3,3.3-6.5,6.1-10,8.2"/>
</svg>
