<?xml version="1.0" encoding="utf-8"?>
<!-- Generator: Adobe Illustrator 21.0.2, SVG Export Plug-In . SVG Version: 6.00 Build 0)  -->
<svg version="1.1" id="Layer_1" xmlns="http://www.w3.org/2000/svg" xmlns:xlink="http://www.w3.org/1999/xlink" x="0px" y="0px"
	 viewBox="0 0 72 72" style="enable-background:new 0 0 72 72;" xml:space="preserve">
<style type="text/css">
	.st0{fill:#FF2159;}
	.st1{fill:#2E2D2C;}
</style>
<g>
	<g>
		<path class="st0" d="M53.8,26.4c-0.4-2.1-0.7-4.2-1.8-6.2c-1.6-3.1-4.8-5.3-8.4-6.4c-3.5-1.1-7.4-1.1-11-0.4
			c-4.3,0.7-8.6,2.5-11,5.8c-1.2,1.6-1.8,3.5-2.5,5.3c-1.2,3.5-2.4,7-3.7,10.5c-0.6,1.6-1.1,3.3-0.7,4.9c0.4,1.6,1.3,2.6,1.3,2.6
			c4.1,3.6,8.7,6.9,14.1,8.5c5.4,1.5,11.7,1.1,16.1-2.2c2.4-1.8,4-4.3,5.4-6.8c1.3-2.4,2.4-5,2.7-7.7C54.6,31.6,54.2,29,53.8,26.4z
			 M41.5,33c-0.1,0.9-0.5,1.9-0.9,2.7c-0.5,0.9-1.1,1.8-1.9,2.4c-1.5,1.2-3.7,1.7-5.7,1.5c-4.1-0.4-9.9-10.4,0.9-14
			c1.2-0.4,2.6-0.2,3.9,0.2c1.2,0.4,2.4,1.2,2.9,2.2c0.4,0.7,0.5,1.4,0.6,2.2C41.4,31.2,41.6,32.1,41.5,33z"/>
	</g>
</g>
<g>
	<path class="st1" d="M36,59C11.2,59,2.1,37.2,2,37c0-0.1,0-0.2,0-0.3c0.1-0.2,9.2-20.8,34-20.8h0c0,0,0,0,0,0c0,0,0,0,0,0
		c0,0,0,0,0,0h0c24.7,0,33.9,20.6,34,20.8c0,0.1,0,0.2,0,0.3C69.9,37.2,60.8,59,36,59z M2.8,36.8C3.6,38.7,12.8,58.2,36,58.2
		s32.4-19.5,33.2-21.4c-0.6-1.2-4.8-9.6-14.2-15.2c1.7,3.1,2.5,6.6,2.5,10.2c0,11.9-9.7,21.6-21.6,21.6s-21.6-9.7-21.6-21.6
		c0-3.6,0.9-7.1,2.5-10.2C7.5,27.2,3.3,35.6,2.8,36.8z M18.2,21c-2,3.2-3,7-3,10.8c0,11.5,9.3,20.8,20.8,20.8s20.8-9.3,20.8-20.8
		c0-3.8-1-7.5-3-10.8c-5.3-2.9-11.3-4.4-17.8-4.4h0c0,0,0,0,0,0c0,0,0,0,0,0c0,0,0,0,0,0C29.5,16.6,23.5,18.1,18.2,21z M36,39.7
		c-4.3,0-7.9-3.5-7.9-7.9s3.5-7.9,7.9-7.9s7.9,3.5,7.9,7.9S40.3,39.7,36,39.7z M36,24.7c-3.9,0-7.1,3.2-7.1,7.1
		c0,3.9,3.2,7.1,7.1,7.1s7.1-3.2,7.1-7.1C43.1,27.9,39.9,24.7,36,24.7z"/>
</g>
<g>
	<path class="st1" d="M46.1,34.3c0,0-0.1,0-0.1,0c-0.2-0.1-0.3-0.3-0.3-0.5c0.6-2,0.4-4.3-0.5-6.2c-0.9-1.9-2.5-3.5-4.5-4.3
		c-0.2-0.1-0.3-0.3-0.2-0.5c0.1-0.2,0.3-0.3,0.5-0.2c2.1,0.9,3.9,2.6,4.9,4.7c1,2.1,1.2,4.6,0.5,6.8C46.4,34.2,46.3,34.3,46.1,34.3z
		"/>
</g>
<g>
	<path class="st1" d="M28.8,48.8c-0.1,0-0.1,0-0.2,0C22.9,46.1,17.1,37.1,17,32.4c0-0.2,0.2-0.4,0.4-0.4c0.2,0,0.4,0.2,0.4,0.4
		C17.9,36.8,23.6,45.5,29,48c0.2,0.1,0.3,0.3,0.2,0.5C29.1,48.7,29,48.8,28.8,48.8z"/>
</g>
</svg>
