<?xml version="1.0" encoding="utf-8"?>
<!-- Generator: Adobe Illustrator 21.0.2, SVG Export Plug-In . SVG Version: 6.00 Build 0)  -->
<svg version="1.1" id="Layer_1" xmlns="http://www.w3.org/2000/svg" xmlns:xlink="http://www.w3.org/1999/xlink" x="0px" y="0px"
	 viewBox="0 0 180 90" style="enable-background:new 0 0 180 90;" xml:space="preserve">
<style type="text/css">
	.st0{fill:#A51162;}
	.st1{fill:#FFFFFF;}
</style>
<path class="st0" d="M180,25.4c-0.1,0-0.1,0-0.2,0c-0.9,0.3-1.3,1-1.3,1s-2.3,0-3-0.7s-3.4,1.2-3.4,1.2l-3.8,0.8
	c0,0-1.8,1.4-2.3,1.8c0.1-0.1,0.3-0.3-0.4,0c-1.2,0.6-0.6-2.2-1.4-1.8c-0.9,0.4-0.7-0.1-1.1,0c-0.4,0.1-2.6,0.8-3.9,1.8
	c-1.4,1.1-0.7-0.9-1.2-0.9c-0.6,0-0.9-1.2-2.4-0.8c-1.6,0.5-1.3-0.6-2.4,0.2c-1.1,0.8-1.4,1.2-1.4,1.2l-4.5,5.2c0,0-1.6-0.1-2.7,0
	c-1.1,0.1-1.4-0.4-1.4-0.4s-1.4-0.5-2.6-0.5c-1.1,0-3.1,2.3-3.3,2.5s-0.7,0-0.7,0l-1.5,0.4c-0.1,0-0.1-0.1-0.2-0.1
	c-1.8-0.2-1.8,0-2,0c-0.3,0-1.6-0.8-2.6,0c-0.9,0.7-2-0.7-2.4,0c-0.3,0.7-4-5.8-4.9-5.8s-1.6,0.5-1.6,0.5s-1.1,1-2,0.8s-1-1-1.4-0.8
	c-0.5,0.2-1.1-1.4-1.4-1.8s-0.9-0.3-2,0s-1,1.4-1.8,1.8c-0.9,0.3-1.2-1.8-1.2-1.8l-1-1.4c0,0-0.7,0.6-1.4,0.8
	c-0.7,0.2-0.6-0.5-1.3-0.2c-0.7,0.3-1.2-2-1.2-2s-0.9,0.4-1.8,0c-1.1-0.4-2.1,0.9-2.1,0.9s-0.9,0.3-2.8,0.5c-2,0.2-2.1-1.2-2.4-1.4
	c-0.3-0.2-1.1,0.2-2.4,0C94,26.2,93.6,25,93.6,25L92,24.5l-2.5,1c0,0-0.9,0.2-1.1,0.3c-0.3,0.2-0.9-0.7-1.2-0.3
	c-0.4,0.3-0.9,0.5-1.2,1.1s-0.9-0.8-1.1-0.8c-0.3,0-1.4,0.3-1.7,0.8c-0.3,0.5-0.6,0.7-0.6,0.7s-0.7-0.4-1.2,0.2
	C80.9,28,80.3,28,80.3,28s-1,0.2-2.2,0s-1.4,0.5-1.4,0.5l-0.3,0.8l-1.6,2h-1.6c0,0-1.2-0.4-1.4,0c-0.2,0.4-1.1,0-1.1,0l-1,0.8
	c0,0-0.5-0.8-1.8-1.2c-1.4-0.5-2,1-2,1l-1.2,0.5L63.4,34c0,0-0.5-0.2-1.8-0.8c-1.4-0.6-1.4,0-1.4,0l-0.9,0.4h-1.1l-0.9-0.4
	c0,0-0.9,0.6-1.4,0.9c-0.7,0.3-0.9-2.7-1.1-2.7S53.7,30,52.4,30c-1.2,0.1-1.1,0-1.1,0s-0.9-2.7-1.9-2.2s-1.1,0.8-1.1,0.8l-1.2,0.3
	l-0.7-0.2l-2.8,0.4l-2.3-1.6c0,0-1.1,0.8-2,0s-1.3,0-1.3,0c-2.7,2.2-1.1,0.8-2.6,1.4c-1.6,0.7-1.2,0.6-1.2,0.6h-0.3l-3.3-4.8h-1
	l-2.1,0.6L25.9,25l-1.3-0.4c0,0-1.3-2-2.3-2s-1.3,0-2,1.6s-2.1,3.4-2.1,3.4s-1.6,0.1-2.6-0.1S14,26.7,14,26.7l-2.1,2.4l-2.1-2
	c0,0-0.7-3.2-2.1-2.2s-2.1,1.7-3.9,2.4C2,28,2.3,27,1.8,26.2C1.3,25.7,0,25.4,0,25.4V90h180V25.4z"/>
<path class="st1" d="M180,27.6c-0.4,0.2-0.7,0.4-0.7,0.4s-2.3,1.2-3,0.6s-3.4-0.1-3.4-0.1l-3.8,2c0,0-1.8,1.1-2.3,1.4
	c-0.5,0.3,0.8-0.5-0.4,0c-1.2,0.5-0.6-1.6-1.4-1.4c-0.9,0.3-0.7-0.1-1.1,0c-0.4,0.1-2.6,0.6-3.9,1.4c-1.4,0.8-0.7-0.7-1.2-0.7
	c-0.6,0-0.9-0.9-2.4-0.6c-1.6,0.4-1.3,1.1-2.4,1.6c-1.1,0.6-2.4-0.1-2.4-0.1l-3.5,3.8c0,0-1.6-0.1-2.7,0c-1.1,0.1-1.4-1.1-1.4-1.1
	s-1.4-0.4-2.6-0.4c-1.1,0-3.1,1.2-3.3,1.4c-0.3,0.2-0.7,1.3-0.7,1.3H136h-0.3l0.1,0.3c-0.1,0-0.1-0.1-0.2-0.1c-1.8-0.1-1.8,1-2,1
	c-0.3,0-1.6-1.1-2.6-0.5c-0.9,0.5-1.1-1-1.4-0.5c-0.3,0.5-1.4,0.1-1.4,0.1s0-0.5-0.9-0.5s-3.9-4.5-4.9-4.5c-0.9,0-1.6,2.4-1.6,2.4
	s-1.1,0.7-2,0.6c-0.9-0.1-1-0.7-1.4-0.6c-0.5,0.1-1.1-1.1-1.4-1.4c-0.3-0.3-0.9-0.2-2,0s-1,1.1-1.8,1.3c-0.9,0.2-1.2-1.3-1.2-1.3
	l-1-1.1c0,0-0.7-1.1-1.4-0.9c-0.7,0.1-0.6-0.4-1.3-0.1s-1.2-1.5-1.2-1.5s-0.9,0.3-1.8,0c-1.1-0.3-2.1,0.7-2.1,0.7s-0.9,0.2-2.8,0.4
	c-2,0.1-2.1-0.9-2.4-1.1s-1.1,0.1-2.4,0c-1.2-0.1-1.6-1.1-1.6-1.1l-1.2-0.4l-1.1,0.6c0,0-0.9,0.1-1.1,0.2c-0.3,0.1-0.9-0.5-1.2-0.2
	c-0.4,0.2-0.9,0.4-1.2,0.8c-0.4,0.5-0.9-0.6-1.1-0.6s-1.4,0.2-1.7,0.6c-0.3,0.4-0.6,0.5-0.6,0.5s-0.7-0.8-1.2-0.4
	c-0.5,0.3-1.1,0.4-1.1,0.4s-1-0.6-2.2-0.7s-1.4,0.4-1.4,0.4l-1.3,3.4H75h-1.6c0,0-1.2-0.3-1.4,0c-0.3,0.3-1.1,0-1.1,0l-1-0.9
	c0,0-0.5-0.6-1.8-0.9c-1.4-0.3-1,1.5-1,1.5l-1.2,0.4l-1.1,1.1c0,0-0.5,0.1-1.8-0.4s-1.4,0-1.4,0l-0.9,0.1h-1.1l-0.9-0.1
	c0,0-0.9,0.5-1.4,0.7C56.6,35,56.4,35,56.2,35c-0.3,0-1.1-0.9-2.4-0.9c-1.2,0.1-1.1,0-1.1,0s-0.9-3.5-1.9-3.2
	c-1,0.4-1.1,0.6-1.1,0.6L48,31.9l-0.7-0.1l-2.8,1.8l-2.3-1.2c0,0-1.1-1.6-2-2.2s-1.3,0-1.3,0s0-0.4-1.6,0.1s-2.2-0.1-2.2-0.1h-2.3
	L31.4,28l-1-0.4l-2.1,1l-1.8-0.5l-1.3-0.3c0,0-1.3-1.4-2.3-1.4s-1.3,0-2,1.2s-2.1,2.6-2.1,2.6s-1.6,0.1-2.6-0.1
	c-1-0.1-1.6,1.6-1.6,1.6l-1.8,1.6l-2.1-1.5c0,0-0.7-2.3-2.1-1.6c-1.4,0.7-2.1-0.1-3.9,0.3c-1.8,0.5-1.5-0.7-2-1.3
	C2.3,28.9,0,27.6,0,27.6V90h180V27.6z"/>
</svg>
